<svg xmlns="http://www.w3.org/2000/svg" viewBox="0 0 1080 1080"><circle fill="#99b7cb" cx="540" cy="540" r="540"/><path fill="#fff" d="M853.07 952.72H209.91V88.81l644.97-2.16-1.81 866.07z"/><path fill="#15131d" d="M865.05 964.72H197.92V76.85l669-2.24zm-643.13-24H841.1l1.76-842-620.94 2.08z"/><path fill="#15131d" d="M267.38 443.4h527.17v30.26H267.38z"/><path fill="#d4d4d4" d="M264.75 514.02h529.8v63.49h-529.8zM264.75 779.82h400.3v63.49h-400.3zM264.75 171.06h529.8v223.41h-529.8zM264.75 606.89h525.73v52.47H264.75zM264.75 694.61h525.73v52.47H264.75z"/><path fill="#fff" d="M655.297 698.1l26.2-21.59L825.59 851.37l-26.2 21.59z"/><path d="M798.16 885.65L642.62 696.9l40.09-33 155.54 188.72zM668 699.34l132.64 161 12.31-10.14-132.64-161z"/><rect fill="#ffcb00" x="809.18" y="795.57" width="83.51" height="226.58" rx="28.18" transform="rotate(-39.49 850.886 908.834)"/><path d="M894.62 1023.33a40.13 40.13 0 01-31-14.61L755.33 877.36a40.24 40.24 0 015.46-56.57l20.94-17.26A40.24 40.24 0 01838.3 809l108.24 131.35a40.24 40.24 0 01-5.46 56.57l-7.63-9.26 7.63 9.26-20.94 17.26a40 40 0 01-25.52 9.15zm-87.36-205a16.06 16.06 0 00-10.26 3.7l-21 17.26a16.18 16.18 0 00-2.2 22.78l108.29 131.39a16.21 16.21 0 0022.79 2.2l20.94-17.26a16.18 16.18 0 002.2-22.78L819.78 824.25a16.07 16.07 0 00-10.94-5.81c-.53-.05-1.06-.08-1.58-.08z"/><circle fill="#fff" cx="657.8" cy="671.31" r="137.9"/><path d="M657.93 821.15a149.69 149.69 0 01-115.82-54.51c-52.56-63.79-43.42-158.45 20.37-211a149.9 149.9 0 01211 20.36 149.82 149.82 0 01-115.55 245.15zm-.24-275.68A125.83 125.83 0 10755 591.25a125.68 125.68 0 00-97.31-45.78z"/><circle fill="#fff" cx="657.8" cy="671.31" r="89.38"/><path d="M657.89 771.36a100.07 100.07 0 1177.16-163.7 100 100 0 01-77.16 163.7zm-.23-178.72a78.68 78.68 0 1060.85 28.65A78.14 78.14 0 00665.36 593q-3.87-.36-7.7-.36z"/></svg>