<svg xmlns="http://www.w3.org/2000/svg" viewBox="0 0 1080 1080"><circle cx="540" cy="540" r="540" fill="#99b7cb"/><rect fill="#fff" x="456.6" y="529.55" width="170.4" height="232.96" rx="12"/><path d="M615 774.51H468.6a24 24 0 01-24-24v-209a24 24 0 0124-24H615a24 24 0 0124 24v209a24 24 0 01-24 24zm-146.39-233v209H615v-209z"/><circle fill="#fff" cx="643.95" cy="140.95" r="80.75"/><path d="M644 233.7a92.75 92.75 0 1192.7-92.7 92.86 92.86 0 01-92.7 92.7zm0-161.5a68.75 68.75 0 1068.7 68.8A68.83 68.83 0 00644 72.2z"/><path fill="#fff" d="M724.63 312.93c0-106.88-26.3-206.27-184.63-206.27s-184.63 106.1-184.63 206.27c0 0-33.58-3.65-28.79 63.89 3.92 55.33 48.71 63.89 48.71 63.89S408 568.49 540 568.49s164.71-127.78 164.71-127.78 44.79-8.56 48.71-63.89c4.79-67.54-28.79-63.89-28.79-63.89z"/><path d="M540 580.49c-73.07 0-117.2-37.28-141.36-68.56a214.28 214.28 0 01-32.94-61.55A75.9 75.9 0 01345.06 439c-12.6-9.76-28.11-28.33-30.45-61.33-2.25-31.75 3.22-54.23 16.27-66.79a35.53 35.53 0 0112.58-7.94c1.09-60.05 12.26-103.9 34.91-137.43 31.75-47 86.13-70.85 161.63-70.85 39.47 0 73.28 6.13 100.52 18.23 25.39 11.29 45.93 28.11 61.05 50 29 42.1 34.35 98.16 35 140a35.76 35.76 0 0112.56 7.94c13 12.56 18.52 35 16.27 66.79-2.34 33-17.85 51.57-30.45 61.33a75.9 75.9 0 01-20.64 11.38 214.28 214.28 0 01-32.94 61.55c-24.17 31.33-68.3 68.61-141.37 68.61zM354.28 324.9c-.9 0-4 .4-7.21 3.72-4.13 4.33-10.73 16.23-8.52 47.35 3.19 45 37.63 52.66 39.09 53a11.59 11.59 0 019.28 8.79c.07.29 8.12 30.57 31.24 60.2 30.31 38.86 71.3 58.56 121.84 58.56s91.53-19.7 121.84-58.56C685 468.3 693 438 693.08 437.71a11.78 11.78 0 019.37-8.79c1.37-.29 35.81-8 39-52.95 2.21-31.12-4.39-43-8.52-47.35-3.18-3.32-6.31-3.69-7.21-3.72a11.1 11.1 0 01-9.21-2.66c-2.75-2.28-3.88-5.74-3.88-9.31 0-62.59-9.79-105.93-30.82-136.4-26.87-38.94-73.26-57.87-141.81-57.87-68 0-114.35 19.72-141.74 60.29-21.08 31.2-30.89 73.78-30.89 134 0 3.57-1.13 7-3.88 9.31a11.11 11.11 0 01-9.21 2.64z" fill="#15131d"/><path fill="#fff" d="M355.37 312.93c27.38 0 64.21-15.22 105.47-107.21C529.3 306 660.16 312.93 724.63 312.93"/><path d="M724.63 324.93c-33 0-82.69-1.71-133.73-16.47-54-15.61-96.83-42.36-127.68-79.64-32.47 65.45-67 96.11-107.85 96.11a12 12 0 010-24c8.95 0 22.82-1.68 39.7-16.21 18.56-16 37-44.2 54.82-83.91a12 12 0 0120.86-1.81c28.09 41.15 70.76 70.24 126.81 86.45 48.12 13.91 95.57 15.52 127.07 15.52a12 12 0 010 24z"/><path fill="#fff" d="M870.28 712c-50.32-35-102.13-62.94-128-76.23a69.76 69.76 0 00-34.93-7.63c-33 1.43-105.29 4.24-167.39 4.24-61.67 0-132.12-2.77-164.71-4.21-12.32-.55-111.94 49.06-161.91 83.83-71 49.41-63.26 245.61-63.26 245.61h783.45s7.75-196.17-63.25-245.61z"/><path d="M933.53 969.64H150.06a12 12 0 01-12-11.52 720.13 720.13 0 015.09-106.25c9.65-76.81 30.95-127.17 63.31-149.69 22.85-15.9 58.92-36.84 96.47-56 16.65-8.49 31.88-15.76 44.06-21 19.82-8.56 25.23-9.12 28.76-8.95 35.36 1.57 103.71 4.2 164.18 4.2 60.71 0 130.61-2.65 166.86-4.23a82 82 0 0140.94 8.94c26.55 13.63 78.67 41.76 129.4 77.06 32.36 22.52 53.66 72.88 63.31 149.69a720.13 720.13 0 015.09 106.25 12 12 0 01-12 11.5zm-771.7-24h759.93a717.6 717.6 0 00-5.18-91.09c-8.66-68.62-27-114.49-53.16-132.67-49.58-34.5-100.63-62-126.65-75.41a57.92 57.92 0 00-28.93-6.31c-36.45 1.58-106.74 4.25-167.91 4.25-60.62 0-129-2.62-164.69-4.2-12.76 2.13-103.25 45.61-155.07 81.67-26.12 18.18-44.51 64-53.17 132.67a719 719 0 00-5.17 91.09z"/><path d="M326.12 736.78h141v93.64a28.82 28.82 0 01-28.82 28.82h-83.36a28.82 28.82 0 01-28.82-28.82v-93.64z" fill="#ffcb00"/><path d="M438.31 871.24h-83.37a40.86 40.86 0 01-40.82-40.82v-93.64a12 12 0 0112-12h141a12 12 0 0112 12v93.64a40.86 40.86 0 01-40.81 40.82zM338.12 748.78v81.64a16.84 16.84 0 0016.82 16.82h83.37a16.84 16.84 0 0016.82-16.82v-81.64zm299.45 133.16a32.75 32.75 0 01-24.39-10.15 33.79 33.79 0 01-9.18-23.46v-58.05c-.09-3.56-.41-41.12 23.33-65.67 13.21-13.67 31-20.6 52.89-20.6s39.57 7 52.41 20.7c22.67 24.25 21.52 61.08 21.27 65.73l.08 56.85a34.64 34.64 0 01-29.12 34.22c-1.1.16-2.24.3-3.4.39l-1.78-21.9c.66-.05 1.3-.12 1.9-.22A12.49 12.49 0 00732 847.32l-.08-57.55v-.38c0-.28 1.75-31.43-15.45-49.74C707.86 730.47 696 726 680.23 726s-28 4.51-37 13.81c-17.92 18.44-17.24 49.66-17.23 50v58.54a12.12 12.12 0 003.12 8.31c2.13 2.25 4.81 3.3 8.44 3.3z"/><path d="M689.2 715h-24.57v-44.42c0-7.44-1.32-29.25-7.24-40.54l22.7-7.44c9 17.17 9.11 46.73 9.11 48z"/><rect fill="#d4d4d4" x="631.25" y="861.96" width="24.92" height="29.84" rx="12.46" transform="rotate(-72.68 643.729 876.886)"/><path d="M646.08 898.08a20.69 20.69 0 01-6.11-.93l-4.7-1.47a20.46 20.46 0 1112.18-39.06l4.7 1.46a20.47 20.47 0 01-6.07 40zm-4.73-26.39a4.47 4.47 0 00-4.25 3.13 4.48 4.48 0 002.93 5.59l4.7 1.46a4.38 4.38 0 003.4-.31 4.45 4.45 0 002.19-2.62 4.46 4.46 0 00-2.94-5.58l-4.69-1.47a4.73 4.73 0 00-1.34-.2z"/><rect fill="#d4d4d4" x="700.1" y="861.96" width="24.92" height="29.84" rx="12.46" transform="rotate(-117.68 712.575 876.884)"/><path d="M710.42 898.48a20.46 20.46 0 01-9.54-38.57l4.36-2.29a20.48 20.48 0 0127.62 8.61 20.49 20.49 0 01-8.61 27.63l-4.36 2.28a20.31 20.31 0 01-9.47 2.34zm4.31-27.2a4.36 4.36 0 00-2.06.51l-4.36 2.29a4.46 4.46 0 104.15 7.89l4.35-2.28a4.46 4.46 0 00-2.08-8.41z"/></svg>