<svg xmlns="http://www.w3.org/2000/svg" viewBox="0 0 1080 1080"><circle fill="#99b7cb" cx="540" cy="540" r="540"/><path fill="#fff" d="M227.03 167.28h625.94v841.41H227.03z"/><path d="M865.38 1021.1H214.62V154.87h650.76zm-625.94-24.82h601.12V179.69H239.44z"/><path fill="#fff" d="M289.84 283.28h500.32v672.55H289.84z"/><path d="M802.57 968.24H277.43V270.87h525.14zm-500.32-24.82h475.5V295.69h-475.5z"/><path fill="#fff" d="M705.93 95.55h-81.08a90.1 90.1 0 00-173 0h-81.06a37.06 37.06 0 00-37 37v58.26a37.06 37.06 0 0037 37h335.14a37.06 37.06 0 0037-37V132.5a37.06 37.06 0 00-37-36.95z"/><path d="M705.93 240.11H370.78a49.41 49.41 0 01-49.35-49.35V132.5a49.42 49.42 0 0149.35-49.36H443a102.5 102.5 0 01190.69 0h72.23a49.42 49.42 0 0149.35 49.36v58.26a49.41 49.41 0 01-49.34 49.35zM370.78 108a24.57 24.57 0 00-24.54 24.54v58.26a24.57 24.57 0 0024.54 24.54h335.15a24.57 24.57 0 0024.54-24.54v-58.3a24.57 24.57 0 00-24.54-24.5h-90.39l-2.6-9a77.69 77.69 0 00-149.17 0l-2.6 8.94z"/><path d="M447.49 146.62H696.5v30.75H447.49zM373.81 146.62h47.96v30.75h-47.96z"/><path fill="#ffcb00" d="M533.55 585.45a122.41 122.41 0 01-20-1.66 120.71 120.71 0 1120 1.66zm-.48-226.12a104.85 104.85 0 1017.29 1.43 106.42 106.42 0 00-17.29-1.43z"/><path fill="#ffcb00" d="M533.55 593.79a131.74 131.74 0 01-21.4-1.76 129.23 129.23 0 1121.4 1.76zM526 576.85a112.07 112.07 0 0073.13-20.92l.84-.61-.84.61A112.24 112.24 0 01526 576.85zM421.46 447.62a113 113 0 0091.45 127.6 113.16 113.16 0 01-91.45-127.6zm111.61-79.94A96.45 96.45 0 10549 369a98.29 98.29 0 00-15.93-1.32zm110.06 123.05a112.9 112.9 0 01-6.71 19.7 112.9 112.9 0 006.71-19.7zm-89.5-137.87a113.15 113.15 0 0191.55 127.22 113 113 0 00-91.55-127.22zM437.44 404a112.62 112.62 0 00-14.73 36.61A112.62 112.62 0 01437.44 404zm0 0zm95.62-53a115.15 115.15 0 0115.94 1.11 114.42 114.42 0 00-23.35-.88q3.68-.23 7.42-.23z"/><path fill="#000222" d="M520 479.82c15.33-20 31.55-49.31 47.54-68 21.91-25.63 57-54.4 75.19-67.9 4.15-3.08 9.65-3.44 14.58-4.62 2.58-.62 5.36-.1 8-.1.31.65.63 1.3.94 1.94a95.43 95.43 0 01-6.71 7.53 427.26 427.26 0 00-73.26 86.56c-17.84 28.06-31.33 59-42.65 91.13-8 22.66-22.78 24.61-37.06 4.74-13.78-19.2-23.45-41.14-31.94-63.84-2.42-6.49-4.87-13.28-5.67-20.19-1.35-11.62 4.58-20 15.62-24.29 9.42-3.68 18.95-.31 19.3 12.35s5.08 23.33 9.31 32.17z"/><path fill="#d4d4d4" d="M340.63 630.22h409.63v31.11H340.63zM340.63 690.19h329.05v31.11H340.63zM340.63 749.76h282.04v31.11H340.63zM340.63 803.84h245.11v31.11H340.63zM340.63 861.78h245.11v31.11H340.63z"/></svg>