<svg xmlns="http://www.w3.org/2000/svg" viewBox="0 0 1080 1080"><circle fill="#99b7cb" cx="540" cy="540" r="540"/><rect fill="#e5e5e5" x="287.94" y="86.65" width="504.12" height="918.22" rx="54.01"/><path fill="#15131d" d="M738.05 1016.87H342a66.08 66.08 0 01-66-66V140.66a66.08 66.08 0 0166-66h396.1a66.08 66.08 0 0166 66v810.2a66.08 66.08 0 01-66.05 66.01zM342 98.65a42.06 42.06 0 00-42 42v810.2a42.06 42.06 0 0042 42h396.1a42.06 42.06 0 0042-42V140.66a42.06 42.06 0 00-42-42z"/><path fill="#15131d" d="M286.44 199.67h507.12v24H286.44zM486.37 141.32h107.26v24H486.37zM286.44 863.1h507.12v24H286.44z"/><path fill="#fff" d="M299.94 222.06h480.12V863.1H299.94z"/><path fill="#15131d" d="M540 711.07c-94.05 0-170.57-76.52-170.57-170.57S446 369.92 540 369.92a170.33 170.33 0 01137.76 70l-19.37 14.17a148 148 0 00-51-43.76A145 145 0 00540 393.92c-80.82 0-146.57 65.76-146.57 146.58S459.18 687.07 540 687.07s146.57-65.75 146.57-146.57h24c0 94.05-76.52 170.57-170.57 170.57z"/><path fill="#15131d" d="M675.5 463.11a11.89 11.89 0 01-2.36-.24l-67.34-13.49 4.72-23.54 51 10.21-6.61-51.54 23.8-3.05 8.74 68.12a12 12 0 01-11.9 13.53zM464.65 612.45l-14.24-19.32 81.91-60.37.68-74.43 24 .22-.79 86.41-91.56 67.49z"/><path fill="#ffcb00" d="M540 968.27a29.53 29.53 0 1129.53-29.53A29.57 29.57 0 01540 968.27z"/><path fill="#15131d" d="M540 920.21a18.53 18.53 0 11-18.53 18.53A18.55 18.55 0 01540 920.21m0-22a40.53 40.53 0 1040.53 40.53A40.52 40.52 0 00540 898.21z"/></svg>