<svg xmlns="http://www.w3.org/2000/svg" viewBox="0 0 448.26 406.49"><defs><style>.cls-1 {
        fill: #B0CAE3;
    }

    .cls-2,
    .cls-3 {
        fill: #FFFFFF;
        stroke: #000000;
        stroke-linejoin: round;
        stroke-width: .875rem;
    }

    .cls-2 {
        stroke-linecap: round;
    }
</style></defs><title>Asset 22</title><g id="Layer_2" data-name="Layer 2"><g id="Layer_1-2" data-name="Layer 1"><circle class="cls-1" cx="220.58" cy="203.25" r="203.25"/><line class="cls-2" x1="364.72" y1="213.95" x2="349.6" y2="262.93"/><line class="cls-2" x1="441.26" y1="268.95" x2="407.83" y2="293.13"/><line class="cls-2" x1="424.41" y1="214" x2="384.62" y2="273.12"/><path class="cls-3" d="M166.57,324.4l-6.13,39.8s17.33,14.16,116.69,14.16S393.81,364.2,393.81,364.2l-6.13-39.8H166.57Z"/><path class="cls-3" d="M375.43,324.73l-6.12-27.6H185l-6.13,27.6s16,5.89,98.31,5.89S375.43,324.73,375.43,324.73Z"/><path class="cls-3" d="M196.69,172.17l11.52,11.52s-20.81,16.64-53.7,49.52S48.36,351.48,48.36,351.48,31.49,372.39,14,354.88s3.4-34.38,3.4-34.38,85.38-73.26,118.27-106.14,49.52-53.7,49.52-53.7Z"/><rect class="cls-3" x="167.4" y="95.39" width="124.71" height="84.04" transform="translate(164.46 -122.21) rotate(45)"/><line class="cls-2" x1="312.56" y1="142.79" x2="236.21" y2="219.14"/><line class="cls-2" x1="224.38" y1="54.6" x2="148.03" y2="130.95"/><rect x="147.73" y="180.49" width="54.85" height="23.03" rx="11.52" ry="11.52" transform="translate(187.07 -67.61) rotate(45)"/><rect class="cls-3" x="273.68" y="146.04" width="46.67" height="115.45" rx="23.34" ry="23.34" transform="translate(231.08 -150.34) rotate(45)"/><rect class="cls-3" x="142.09" y="14.46" width="46.67" height="115.45" rx="23.34" ry="23.34" transform="translate(231.36 240.2) rotate(-135)"/></g></g></svg>