<svg xmlns="http://www.w3.org/2000/svg" viewBox="0 0 31.75 36.5"><g fill="#13404F"><path d="M20.43 0a.73.73 0 01.41.12l.09.07 10.56 9.24a.71.71 0 01.25.46v23a3.67 3.67 0 01-3.55 3.59H6a3.68 3.68 0 01-3.74-3.4v-6.66h1.5v6.49a2.15 2.15 0 002.09 2.08H28a2.18 2.18 0 002.24-1.94V10.34L20.15 1.5H6a2.18 2.18 0 00-2.24 1.94v11.9H2.25V3.59A3.67 3.67 0 015.8 0h14.63z"/><path d="M22 14.75a1 1 0 011 1v10a1 1 0 01-1 1H1a1 1 0 01-1-1v-10a1 1 0 011-1zm-.5 1.5h-20v9h20z"/><path d="M5.59 23.75c.19 0 .24-.08.24-.22v-1.64h.44c1.23 0 2.19-.63 2.19-1.92A1.78 1.78 0 008 18.81a2.49 2.49 0 00-2-.61H4.8c-.18 0-.24.05-.24.25v5.05c0 .19.09.25.23.25zm.67-2.82h-.43v-1.75h.39c.6 0 1 .26 1 .87a.81.81 0 01-.96.88zm5 2.82a2.61 2.61 0 002.91-2.76c0-2.13-1.29-2.79-3.27-2.79H9.61c-.21 0-.26.08-.26.25v5.05c0 .21.1.25.26.25zm-.05-1.08h-.57v-3.38h.45c1.13 0 1.72.5 1.72 1.69-.02 1.35-.81 1.69-1.62 1.69zm5 1.08c.15 0 .23-.07.23-.22v-2.08h1.82a.2.2 0 00.23-.23v-.58c0-.13-.06-.22-.24-.22H16.4v-1.19h1.93c.19 0 .3 0 .31-.2l.08-.65c0-.1 0-.18-.2-.18h-3.19a.2.2 0 00-.21.22v5.08c0 .2.08.25.27.25z"/><path d="M21.18.75v8a1.24 1.24 0 001.12 1.24H31v1.5h-8.57a2.74 2.74 0 01-2.74-2.58V.75z"/></g></svg>