<svg xmlns="http://www.w3.org/2000/svg" viewBox="0 0 2199.72 1102.26"><defs><style>.cls-1{fill:#b6cfe0;isolation:isolate;opacity:0.1;}</style></defs><g id="Layer_2" data-name="Layer 2"><g id="Layer_1-2" data-name="Layer 1"><path class="cls-1" d="M622.42,669.84C587.48,705.28,547,746.86,503.1,791L365.82,929.27,288.88,1006l-95.56,96.24h-10l2.56-2.58,78-77.68,97-97.67,138-137.59c44.07-44,85.5-84.58,120.85-119.6s65.17-63.87,85.88-84.22l32.69-31.8-31.73,32.77C686.14,604.53,657.35,634.39,622.42,669.84ZM276.24,1034.51l-67.79,67.7h9.86l83.15-83.72,76.87-76.68L515.6,803.49c43.85-44.16,84.38-85.7,119.33-121.13s63.72-65.3,84-86.05l31.82-32.79-32.7,31.82c-20.72,20.38-50.49,49.26-85.86,84.2s-76.84,75.66-120.85,119.6l-138,137.59ZM763.17,576l-32.74,31.82c-20.7,20.38-50.49,49.26-85.86,84.22s-76.84,75.64-120.82,119.6l-138,137.59-97,97.7-55.34,55.19h9.76l70.69-71.05,76.87-76.7L528,816.11C571.89,772,612.41,730.42,647.35,695s63.72-65.31,84-86.07Zm12.51,12.54L743,620.38c-20.71,20.38-50.49,49.26-85.86,84.22s-76.83,75.65-120.85,119.6l-138,137.59-97,97.67q-21.24,21.15-42.79,42.69h9.62l58.25-58.68,77-76.62L540.62,828.54C584.48,784.38,625,742.85,660,707.42s63.69-65.3,84-86.06Zm12.49,12.52-32.71,31.81c-20.69,20.39-50.49,49.26-85.86,84.2s-76.84,75.66-120.85,119.62-91,90.78-138,137.59l-97,97.71-30.2,30.13h9.51L338.81,1056l76.87-76.68L553,841c43.84-44.16,84.38-85.68,119.32-121.13s63.72-65.29,84-86Zm12.49,12.53L768,645.52c-20.71,20.38-50.51,49.26-85.88,84.22s-76.82,75.64-120.85,119.6l-138,137.59-97,97.65-17.68,17.63H318l33.37-33.61,76.89-76.7L565.53,853.6c43.86-44.16,84.4-85.7,119.33-121.13s63.72-65.31,84-86.05Zm-6.78,57.76,31.77-32.67L793,670.52c-20.7,20.39-50.49,49.26-85.86,84.22s-76.82,75.64-120.85,119.6l-138,137.59-89.62,90.27h9.12l85.46-85.26,137.27-138.3c43.86-44.17,84.38-85.7,119.33-121.13s63.81-65.3,84.11-86Zm44.23-20.25-32.71,31.8c-20.71,20.38-50.49,49.26-85.85,84.22s-76.84,75.65-120.85,119.6l-138,137.59-77.17,77.73h9.27l72.87-72.74c46.76-47.07,93.5-94.15,137.27-138.3s84.4-85.7,119.35-121.13,63.7-65.31,84-86Zm12.49,12.52-32.71,31.81c-20.69,20.39-50.48,49.26-85.85,84.21S655.2,855.33,611.19,899.29l-138,137.59-64.77,65.33h9.39l60.35-60.2L615.44,903.69c43.84-44.16,84.38-85.68,119.33-121.13s63.72-65.29,84-86Zm12.51,12.54-32.69,31.86c-20.71,20.39-50.51,49.26-85.87,84.22s-76.83,75.64-120.89,119.6l-138,137.59q-26.24,26.4-52.29,52.66h9.49l47.8-47.68L628,916.14C671.81,872,712.35,830.45,747.27,795S811,729.7,831.3,709Zm12.49,12.51-32.71,31.82c-20.71,20.38-50.49,49.26-85.86,84.2s-76.83,75.66-120.85,119.6l-138,137.59-39.86,40.16H468l35.23-35.15L640.45,928.61c43.85-44.16,84.38-85.69,119.33-121.13s63.86-65.14,84.19-85.92Zm-392.3,413.5h9.75l22.67-22.62L653,941.28c43.87-44.16,84.38-85.69,119.33-121.12s63.72-65.32,84-86.07l31.72-32.77-32.69,31.8c-20.71,20.38-50.5,49.26-85.87,84.22S692.69,893,648.66,936.93l-138,137.6Zm39.93-15-15,15.1h9.86l10.17-10.19c46.76-47.07,93.5-94.15,137.27-138.3S750,868.07,784.9,832.64s63.7-65.31,84-86l31.75-32.79-32.71,31.8c-20.71,20.39-50.49,49.26-85.86,84.22s-76.84,75.66-120.85,119.6Zm9.95,15.1h10L678.06,966.37c43.84-44.16,84.38-85.68,119.33-121.13s63.72-65.29,84-86l31.73-32.78-32.71,31.81c-20.69,20.38-50.49,49.26-85.86,84.22S717.73,918.08,673.72,962l-138,137.59ZM925.64,738.94l-32.7,31.8C872.22,791.13,842.43,820,807.06,855s-76.82,75.64-120.83,119.6l-128,127.7h9.86L690.55,978.91c43.86-44.16,84.4-85.7,119.33-121.13s63.72-65.31,84-86Zm12.49,12.52-32.7,31.82c-20.72,20.38-50.49,49.26-85.86,84.2s-76.84,75.65-120.85,119.6L583.26,1102.26H593L703.06,991.43c43.84-44.17,84.38-85.7,119.32-121.13s63.72-65.3,84-86.06ZM950.62,764l-32.69,31.79c-20.71,20.39-50.5,49.27-85.87,84.22s-76.82,75.65-120.85,119.6l-102.9,102.65H618l97.6-98.33c43.86-44.17,84.38-85.7,119.32-121.13s63.73-65.31,84-86.07Zm12.51,12.52L930.4,808.26c-20.7,20.39-50.48,49.26-85.85,84.22s-76.84,75.66-120.9,119.6l-90.35,90.13h9.51L728,1016.43c43.84-44.16,84.38-85.7,119.32-121.13s63.71-65.31,84-86ZM975.62,789l-32.71,31.82c-20.69,20.38-50.48,49.26-85.85,84.22s-76.84,75.64-120.85,119.6l-77.79,77.59h9.39L740.6,1029c43.84-44.16,84.38-85.68,119.32-121.11s63.71-65.28,84-86.07Zm12.51,12.54-32.71,31.8c-20.71,20.38-50.5,49.26-85.87,84.22s-76.83,75.66-120.84,119.6l-65.24,65.07h9.27l60.3-60.72c43.85-44.17,84.39-85.7,119.32-121.13s63.72-65.32,84-86.06Zm10,10L860.85,949.9C817,994.06,776.47,1035.59,741.53,1071q-16.21,16.48-30.61,31.23h4.58q13.65-13.41,28.81-28.41c35.35-35,76.82-75.66,120.85-119.6l138-137.6,96.6-97.21v-9.07ZM754,1083.51q-9.51,9.63-18.37,18.69h5.08q7.85-7.71,16.1-15.9c35.35-35,76.82-75.66,120.85-119.6l138-137.59,84-84.63v-9.17l-89,88.79L873.36,962.42C829.45,1006.51,788.9,1048.09,754,1083.51ZM766.46,1096l-6.07,6.18h5.47l3.39-3.39c35.36-35,76.81-75.66,120.85-119.61l138-137.58,71.55-72.11v-9.29c-25.2,25.12-50.84,50.72-76.52,76.33L885.85,974.87C841.94,1019,801.4,1060.6,766.46,1096Zm274.1-241.9q29.63-29.86,59-59.46v-9.42l-64,63.87L898.29,987.44C857,1029,818.72,1068.19,785.22,1102.21H791c33.27-32.9,71.33-70.25,111.6-110.41Zm12.49,12.52,46.54-46.87v-9.49l-51.54,51.38L910.78,1000c-36.3,36.5-70.2,71.22-100.7,102.22h6.17c30.13-29.76,63.67-62.74,98.9-97.92Zm12.49,12.53,34-34.29v-9.65q-19.47,19.39-39,38.93l-137.27,138.3c-31.47,31.7-61.22,62-88.43,89.74h6.54c26.76-26.41,55.92-55.08,86.23-85.39Zm12.51,12.52L1099.59,870v-9.78l-26.49,26.49L935.83,1025.05c-26.79,27-52.34,53-76.15,77.2h7c23.1-22.92,47.84-47.36,73.47-72.84ZM884.44,1102.21h7.32c19.44-19.21,39.83-39.39,60.85-60.33l138-137.59,9.05-9.11v-9.9l-14,14L948.34,1037.6C926,1060,904.66,1081.63,884.44,1102.21Zm24.81,0h7.68c15.58-15.4,31.69-31.37,48.17-47.81l134.54-134.2v-10l-1.54,1.53L960.83,1050.08C943,1068,925.8,1085.47,909.25,1102.21Zm24.83,0h8q17.39-17.24,35.49-35.28l122-121.74v-9.88L973.23,1062.59Q953.15,1082.84,934.08,1102.21Zm24.85,0h8.29c7.53-7.49,15.14-15,22.87-22.76l109.55-109.27v-9.75L985.75,1075.1Q972.12,1088.86,958.93,1102.21Zm24.87,0h8.48c3.39-3.39,6.78-6.79,10.27-10.19l97.06-96.82v-9.63L998.19,1087.64Zm24.92,0h8.66l82.26-82.06v-9.43c-30.34,30.58-60.23,60.68-88.89,89.52Zm24.94,0h8.78l57.2-57v-9.4C1077.22,1058.29,1055.14,1080.57,1033.66,1102.21Zm24.93,0h8.9l32.2-32.07v-9.27Q1078.84,1081.8,1058.59,1102.21Zm24.93,0h9l7.1-7.08V1086Zm-739.39-531,31.74-32.75-32.71,31.82c-20.7,20.38-50.48,49.26-85.87,84.2s-76.82,75.66-120.85,119.62L0,910.22v10l3.39-3.4L140.66,778.47c43.86-44.17,84.4-85.7,119.33-121.13S323.83,592,344.13,571.25Zm12.51,12.52L388.36,551l-32.7,31.8C335,603.19,305.17,632.06,269.8,667S193,742.66,149,786.62L11,924.21,0,935.31v9.88l16-15.92C62.7,882.19,109.45,835.1,153.22,791s84.38-85.69,119.33-121.13S336.33,604.53,356.64,583.77Zm12.49,12.54,31.72-32.79-32.69,31.82c-20.71,20.38-50.5,49.26-85.87,84.2s-76.82,75.66-120.85,119.6-91,90.79-138,137.59L0,960.43v9.75l28.45-28.37L165.73,803.49c43.86-44.16,84.38-85.7,119.32-121.13s63.78-65.3,84.08-86.1ZM413.36,576l-32.71,31.82c-20.71,20.38-50.48,49.26-85.85,84.22S218,767.72,174,811.68L36,949.27,0,985.53v9.64q20.34-20.38,40.94-40.77c46.76-47.09,93.5-94.17,137.28-138.31S262.6,730.4,297.54,695s63.71-65.31,84-86.07Zm12.49,12.54-32.67,31.8c-20.7,20.38-50.49,49.26-85.86,84.22s-76.84,75.65-120.9,119.6l-138,137.59L0,1010.72v9.52q26.58-26.5,53.43-53.39L190.71,828.54c43.86-44.16,84.38-85.69,119.32-121.12s63.73-65.32,84-86.06Zm12.51,12.52-32.71,31.81c-20.71,20.39-50.49,49.26-85.87,84.2S243,792.77,198.93,836.73L61,974.37c-20.34,20.56-40.79,41.08-61,61.39v9.4l65.94-65.77L203.21,841.07c43.86-44.17,84.4-85.69,119.33-121.14s63.72-65.29,84-86Zm-95.43,501.1,20.95-21.1,76.87-76.68L578,866.1C621.86,821.94,662.4,780.41,697.34,745s63.73-65.29,84-86.05l31.75-32.78L780.39,658c-20.71,20.38-50.49,49.26-85.86,84.2s-76.84,75.66-120.85,119.6l-138,137.59-97,97.69-5.08,5.1ZM367.76,0h-9.14L310.93,48.09c-43.84,44.16-84.4,85.69-119.34,121.13s-63.71,65.31-84,86.05L75.84,288.06l32.71-31.82C129.24,235.86,159,207,194.4,172s76.76-75.68,120.82-119.6Zm25.08,0h-9.27c-20.46,20.61-40.68,40.89-60.15,60.59C279.63,104.76,239,146.3,204.1,181.79s-63.73,65.29-84,86L88.33,300.57,121,268.78c20.71-20.39,50.48-49.26,85.85-84.22S283.71,108.9,327.74,65Zm25.05,0h-9.46L335.91,73.08c-43.84,44.16-84.38,85.69-119.32,121.13s-63.73,65.36-84,86.1l-31.72,32.8,32.7-31.82C154.24,260.91,184,232,219.4,197.08s76.82-75.66,120.85-119.61Zm25,0h-9.49l-85,85.63c-43.84,44.17-84.38,85.7-119.33,121.13s-63.72,65.32-84,86.07l-31.74,32.77L146,293.9c20.71-20.39,50.49-49.26,85.86-84.22S308.71,134,352.74,90.06ZM468,0h-9.63L361,98.2c-43.85,44.16-84.38,85.69-119.33,121.13s-63.7,65.29-84,86l-31.73,32.79,32.7-31.82c20.71-20.38,50.48-49.26,85.87-84.22s76.82-75.66,120.85-119.6Zm25.05,0H483.3L373.4,110.72C329.57,154.88,289,196.41,254.09,231.85s-63.72,65.31-84,86l-31.75,32.78L171,318.89c20.69-20.39,50.49-49.26,85.86-84.22S333.71,159,377.74,115.07Zm25.06,0h-9.86L385.91,123.25c-43.85,44.17-84.38,85.7-119.33,121.13s-63.72,65.3-84,86.06L150.83,363.2l32.71-31.79C204.25,311,234,282.14,269.39,247.19S346.2,171.6,390.23,127.58Zm25,0h-10L398.4,135.77C354.57,179.94,314,221.47,279.07,256.9s-63.72,65.32-84,86.06l-31.73,32.78L196,343.92c20.69-20.38,50.47-49.26,85.85-84.21s76.83-75.66,120.86-119.61l138-137.59Zm24.93,0h-9.86l-10,10L411,148.29c-43.85,44.17-84.39,85.7-119.33,121.13s-63.72,65.31-84,86.07l-31.74,32.77,32.59-31.8c20.71-20.38,50.49-49.26,85.86-84.22s76.84-75.66,120.9-119.6l138-137.59ZM593,0h-9.74L560.72,22.51,423.44,160.83C379.62,205,339,246.52,304.07,282s-63.72,65.29-84,86.05l-31.72,32.79L221,369c20.71-20.38,50.49-49.26,85.87-84.22s76.82-75.66,120.85-119.6l138-137.59Zm25,0h-9.64L573.23,35,436,173.35c-43.84,44.16-84.4,85.69-119.33,121.13s-63.77,65.31-84.07,86l-31.74,32.78,32.71-31.8c20.69-20.38,50.48-49.26,85.85-84.21s76.82-75.68,120.85-119.61l138-137.59Zm24.93,0h-9.51L585.71,47.6,448.44,185.92c-43.84,44.16-84.38,85.69-119.32,121.13s-63.73,65.29-84,86.05l-31.72,32.76L246,394.12c20.71-20.38,50.48-49.26,85.85-84.22s76.82-75.66,120.85-119.6l138-137.59Zm24.93,0h-9.39L598.24,60.08,461,198.4c-43.83,44.17-84.38,85.7-119.33,121.13s-63.72,65.31-84,86.06l-31.74,32.78,32.71-31.82c20.69-20.38,50.47-49.26,85.85-84.22s76.82-75.65,120.85-119.6l138-137.59C624.85,43.3,646.47,21.54,667.81,0Zm-52.1,77.58L692.74,0h-9.27L610.71,72.62,473.44,210.92c-43.84,44.16-84.38,85.7-119.33,121.13s-63.72,65.31-84,86.07l-31.74,32.77,32.7-31.8c20.71-20.39,50.49-49.26,85.86-84.22s76.82-75.66,120.85-119.6ZM715.43,0h-4.58c-21.33,21.85-39.4,40.52-53.41,54.84L625.71,87.63l32.71-31.8C673.2,41.29,692.64,22.39,715.43,0ZM740.6,0h-5.09c-26.71,27.27-49,50.37-65.65,67.36L638.2,100.25l32.71-31.81C688.38,51.18,712.35,27.91,740.6,0ZM682.43,79.87l-31.66,32.82,32.63-31.8C703.43,61.19,732,33.51,765.86,0h-5.47C728.19,32.78,701.62,60.39,682.43,79.87ZM791,0h-5.79L779,6.39c-35,35.45-63.79,65.29-84,86.05L663.2,125.22l32.7-31.76c20.7-20.38,50.49-49.26,85.86-84.22ZM816.2,0h-6.12L791.44,18.91c-34.91,35.48-63.71,65.31-84,86.05l-31.74,32.78,32.71-31.8c20.71-20.38,50.48-49.26,85.85-84.21Zm-9.51,34.21c11-10.87,22.66-22.32,34.69-34.21h-6.54c-10.69,10.89-21,21.41-30.9,31.41-34.91,35.45-63.72,65.3-84,86.05l-31.73,32.77,32.71-31.8C741.59,98.11,771.37,69.25,806.69,34.24ZM866.58,0h-7C844.48,15.46,830,30.18,816.45,44c-34.93,35.45-63.72,65.31-84,86L700.68,162.8,733.39,131c20.71-20.38,50.49-49.26,85.86-84.2C834,32.14,849.92,16.46,866.58,0Zm25.18,0h-7.32c-19.67,20-38.26,39.07-55.5,56.45-34.91,35.47-63.72,65.31-84,86.07l-31.73,32.77,32.69-31.8c20.71-20.39,50.49-49.26,85.88-84.22C850.24,41,870.43,21.1,891.76,0ZM725.68,187.85,758.39,156c20.69-20.39,50.49-49.26,85.86-84.22,22.13-21.91,46.63-46,72.68-71.79h-7.68C885,24.68,862.21,48,841.47,69c-34.93,35.45-63.73,65.29-84,86.05Zm12.49,12.52,32.71-31.8c20.71-20.38,50.49-49.26,85.85-84.22C882.41,58.87,911.34,30.51,942.1,0h-8c-28.81,29.32-55.92,56.91-80.14,81.54-34.93,35.47-63.72,65.31-84,86.07Zm44.23-20.28-31.64,32.82,32.71-31.82c20.69-20.38,50.47-49.26,85.86-84.22C898.48,68,931.83,35.25,967.3.05H959c-33.69,34-64.89,65.94-92.58,94C831.52,129.52,802.71,159.37,782.4,180.09Zm99.33-70.71C914.32,77.1,952.13,40,992.31,0h-8.47c-38.33,38.73-73.77,75.08-104.9,106.59-35,35.45-63.78,65.31-84,86l-31.74,32.79,32.71-31.75c20.71-20.38,50.48-49.26,85.85-84.27ZM1017.38,0h-8.66C965.67,43.4,925.83,84.24,891.43,119.11c-34.92,35.47-63.73,65.31-84,86.07L775.68,238l32.7-31.8c20.71-20.39,50.49-49.26,85.88-84.22s76.82-75.66,120.88-119.6C1015.84,1.56,1016.62.8,1017.38,0Zm10.17,14.82L1042.44,0h-8.78c-3.49,3.5-7,7-10.4,10.48-43.84,44.17-84.4,85.7-119.33,121.13s-63.72,65.3-84,86.06l-31.74,32.78,32.7-31.81c20.7-20.39,50.49-49.26,85.86-84.22s76.82-75.66,120.85-119.6ZM1040,27.38,1067.49,0h-8.9l-22.84,23c-43.84,44.17-84.38,85.7-119.33,121.13s-63.72,65.32-84,86.07L800.66,263l32.7-31.8c20.71-20.38,50.49-49.26,85.86-84.22S996,71.38,1040.07,27.38ZM1083.52,0l-35.28,35.54c-43.83,44.16-84.38,85.7-119.33,121.13s-63.72,65.3-84,86.05l-31.73,32.79,32.71-31.82c20.69-20.38,50.47-49.26,85.86-84.22s76.82-75.66,120.85-119.6l40-39.87Zm16.12,8.89-39,39.17c-43.82,44.13-84.29,85.69-119.24,121.13s-63.72,65.31-84,86.05l-31.75,32.79,32.71-31.82c20.71-20.38,50.49-49.26,85.86-84.2S1021,96.36,1065.07,52.44L1099.64,18Zm-22,56.05,22-22.08V34l-26.4,26.61c-43.85,44.17-84.38,85.68-119.33,121.13s-63.72,65.3-84,86.06l-31.73,32.76,32.69-31.79c20.71-20.39,50.49-49.26,85.88-84.22S1033.55,108.9,1077.58,65Zm12.49,12.52c3.17-3.14,6.37-6.35,9.57-9.54v-8.8l-13.93,13.93c-43.84,44.16-84.39,85.69-119.32,121.13s-63.72,65.29-84,86L850.65,313l32.71-31.81C904.07,260.84,933.84,232,969.21,197S1046,121.42,1090.07,77.47Zm9.57,6.8-1.4,1.41c-43.84,44.16-84.38,85.69-119.33,121.13s-63.79,65.28-84.12,86l-31.73,32.77,32.76-31.73c20.71-20.39,50.49-49.26,85.85-84.22,34.58-34.24,75-73.87,117.94-116.7Zm0,25.12c-39.62,39.92-76.29,77.47-108.26,109.92-34.91,35.45-63.72,65.29-84,86l-31.75,32.79,32.71-31.82c20.7-20.38,50.47-49.26,85.86-84.22,31.18-30.9,67.14-66.25,105.43-104.24Zm0,25.17c-34.8,35.22-67.16,68.32-95.73,97.3-34.93,35.45-63.72,65.31-84,86.05l-31.74,32.79,32.71-31.8c20.71-20.38,50.49-49.26,85.86-84.22,27.77-27.52,59.31-58.52,92.93-91.84ZM932.4,330.47,900.65,363.2s11.86-11.55,32.69-31.79,50.48-49.27,85.87-84.22c24.28-24.07,51.52-50.84,80.43-79.45v-8c-30.07,30.49-58.11,59.18-83.24,84.66-34.92,35.46-63.73,65.31-84,86.07ZM1099.67,185c-25.42,25.77-49.14,50.06-70.73,72-34.93,35.45-63.72,65.31-84,86.05l-31.74,32.78L945.88,344c20.71-20.39,50.48-49.26,85.85-84.22,20.76-20.57,43.68-43.11,67.94-67.08Zm-174,203.3,32.69-31.8c20.71-20.38,50.49-49.26,85.86-84.22,17.17-17,35.81-35.36,55.45-54.75v-7.32c-20.69,21.05-40.23,41-58.25,59.25-34.93,35.47-63.72,65.31-84,86.07Zm12.49,12.53L970.84,369c20.69-20.38,50.47-49.26,85.86-84.22q20.33-20,42.94-42.47v-6.93c-16.08,16.38-31.4,32-45.76,46.55-34.91,35.45-63.72,65.29-84,86Zm12.49,12.52,32.71-31.8c20.71-20.38,50.49-49.26,85.86-84.21,9.71-9.62,19.89-19.69,30.5-30.1v-6.53c-11.54,11.74-22.67,23.09-33.25,33.81-34.93,35.46-63.72,65.31-84,86Zm12.51,12.52,32.71-31.71c20.69-20.38,50.47-49.26,85.85-84.22,5.8-5.76,11.87-11.7,18-17.75v-6.24L1078.88,307c-34.93,35.45-63.74,65.3-84.08,86.05Zm12.49,12.54,32.74-31.82c20.71-20.38,50.49-49.26,85.86-84.22l5.45-5.38v-5.81l-8.27,8.39c-34.92,35.45-63.72,65.31-84,86.06Zm45.2-19.28c19.32-19,46.54-45.39,78.82-77.26v-5.47c-33,33.57-60.32,61.85-79.79,81.76l-31.72,32.77ZM190.91,2.46,193.32,0h-10L48.59,135.77Q23.49,161,0,184.93v7.7q25.58-25.27,52.91-52.53ZM203.37,15,218.25,0h-9.8l-10,10L61,148.29c-21.22,21.37-41.66,42.13-61,61.88v7.29c20.81-20.54,42.76-42.25,65.42-64.85Zm12.5,12.54L243.19,0h-9.76L210.91,22.51,73.64,160.83c-25.9,26-50.56,51.09-73.64,74.58v6.93c24.44-24.1,50.67-50,78-77.18ZM228.36,40,268.12,0H258.5L223.4,35,86.08,173.3C55.57,204.07,26.59,233.55,0,260.62v6.52c27.9-27.51,58.45-57.61,90.4-89.5Zm12.49,12.53L293.05,0h-9.51L235.91,47.6,98.63,185.92C63.2,221.59,30,255.56.07,286v6.15C31.22,261.34,66.16,227,103,190.18Zm12.51,12.52L318,0h-9.39L248.4,60.08,111.12,198.4C70.62,239.12,33,277.59,0,311.14V317c34.15-33.79,73.59-72.48,115.39-114.22Zm12.49,12.52c25.9-26,51.73-52.1,77.08-77.58h-9.27L261,72.62,123.71,210.92C79.65,255.07,39.18,296.62,4.24,332.05L0,336.36v5.47l7.05-7c35.32-35,76.82-75.66,120.85-119.6ZM592.93,470.08c-20.71,20.38-50.48,49.26-85.85,84.2s-76.84,75.66-120.85,119.6l-138,137.59-96.94,97.78c-25.63,25.48-51.72,51.59-77.84,77.66L0,1060.87v9.31l78.43-78.24,98-98.68,76.89-76.67L390.57,678.27c43.84-44.17,84.38-85.7,119.32-121.13s63.72-65.3,84-86.06l31.81-32.8Zm45.2-19.29L605.42,482.6c-20.69,20.38-50.48,49.26-85.85,84.22s-76.84,75.64-120.85,119.6L260.73,824l-97,97.67-78,77.7L0,1086v9.16l90.94-90.69c33-33.26,66-66.47,98-98.67l76.87-76.7,137.28-138.3c43.86-44.17,84.38-85.7,119.32-121.13s63.72-65.32,84-86.07Zm12.51,12.53-32.71,31.8c-20.71,20.38-50.49,49.26-85.87,84.22S455.24,655,411.23,698.94l-138,137.59-97,97.76c-25.61,25.47-51.72,51.6-77.85,77.66L8.81,1102.21H18L103.38,1017l98-98.68,76.89-76.69,137.27-138.3c43.86-44.17,84.4-85.7,119.35-121.13s63.7-65.31,84-86.06Zm-407.51,6.79c-20.71,20.39-50.51,49.27-85.88,84.21S80.5,629.94,36.47,673.88Q18.56,691.81,0,710.27v9.07l40.81-41.11c43.93-44.11,84.38-85.69,119.32-121s63.73-65.3,84-86.06l31.72-32.85Zm45.19-19.29-32.7,31.82c-20.71,20.38-50.49,49.25-85.86,84.21S93,642.46,49,686.42L0,735.27v9.17l53.32-53.67c43.84-44.17,84.38-85.7,119.32-121.13s63.71-65.32,84-86.07Zm12.49,12.53-32.71,31.8c-20.69,20.39-50.48,49.27-85.85,84.22S105.41,655,61.4,699L0,760.26v9.26l65.81-66.25c43.84-44.16,84.38-85.7,119.32-121.13s63.72-65.31,84-86.05Zm12.51,12.52-32.71,31.82c-20.71,20.38-50.5,49.26-85.87,84.2S118,667.6,74,711.46L0,785.25v9.42l78.3-78.86c43.86-44.17,84.38-85.7,119.32-121.13s63.72-65.3,84-86.06Zm12.49,12.54-32.62,31.77c-20.71,20.38-50.49,49.25-85.86,84.21S130.49,680,86.43,724L0,810.29v9.52l90.8-91.43c43.85-44.17,84.38-85.7,119.33-121.13s63.72-65.32,84-86.06,31.73-32.81,31.73-32.81Zm12.49,12.52-32.69,31.81C284.9,553.13,255.11,582,219.74,617S143,692.57,99,736.51L0,835.24v9.65l103.38-104c43.86-44.16,84.38-85.69,119.32-121.13s63.72-65.29,84-86.05Zm12.51,12.52L318.17,545.3c-20.71,20.38-50.49,49.26-85.86,84.22s-76.84,75.57-120.85,119.61L0,860.23V870c39.5-39.8,78.7-79.26,115.8-116.61,43.84-44.17,84.38-85.7,119.33-121.13s63.7-65.32,84-86.07ZM363.3,526l-32.71,31.8C309.9,578.17,280.1,607,244.74,642S167.9,717.66,123.88,761.6L0,885.21v9.9L128.29,765.92c43.84-44.17,84.38-85.7,119.33-121.13s63.72-65.32,84-86.06Zm-252.36,498.5-77.18,77.73H43l72.91-72.8,98-98.52,76.87-76.68L428.05,715.89c43.85-44.16,84.38-85.69,119.33-121.13s63.72-65.29,84-86.05l31.73-32.78-32.69,31.72C609.75,528,580,556.92,544.58,591.86s-76.84,75.74-120.8,119.6l-138,137.59-97,97.67ZM123.43,1037l-64.74,65.21h9.39l60.35-60.2,98-98.67,77-76.69L440.63,728.34C484.49,684.18,525,642.65,560,607.21s63.7-65.31,84-86.05l31.72-32.78L643,520.18c-20.71,20.38-50.5,49.25-85.87,84.21S480.34,680,436.31,724l-138,137.59-97,97.71Zm12.5,12.54L83.62,1102.2h9.59L141,1054.52l98-98.66,76.87-76.68L453.1,740.86c43.84-44.16,84.38-85.69,119.33-121.13s63.72-65.29,84-86.05l31.75-32.79-32.71,31.82C634.76,553.09,605,582,569.61,616.91s-76.83,75.66-120.85,119.6l-138,137.59-97,97.68Zm12.49,12.52q-20,20.1-39.86,40.15h9.61l35.25-35.14c33-33.26,66-66.54,98-98.68l76.87-76.69L465.54,753.4c43.86-44.17,84.38-85.7,119.33-121.13s63.72-65.32,84-86.07l31.73-32.79L668,545.3c-20.7,20.38-50.49,49.26-85.86,84.22S505.3,705.09,461.27,749.13l-138,137.59-97,97.69ZM161,1074.58l-27.51,27.63h9.75l22.67-22.62,98-98.69,76.86-76.68,137.27-138.3c43.86-44.17,84.39-85.7,119.34-121.13s63.71-65.32,84-86.06L713.14,526l-32.71,31.8C659.72,578.13,630,607,594.56,642s-76.82,75.65-120.83,119.6l-138,137.59-97,97.67Zm12.51,12.53-15,15.1h9.78L178.45,1092c33-33.24,66.1-66.45,98-98.67l76.88-76.68L490.59,778.35c43.84-44.16,84.38-85.7,119.33-121.13s63.72-65.29,84-86.05l31.74-32.67L693,570.32c-20.69,20.38-50.48,49.26-85.85,84.2s-76.84,75.66-120.85,119.62-91,90.77-138,137.59l-97,97.69ZM8.81,0,0,8.92v9L18,0ZM33.76,0,0,34v8.91L43,0ZM58.69,0,0,59.15V68L68.08,0Zm-55.76,90L93.21,0H83.62L0,84.25v8.67ZM118.17,0h-9.61L11.1,98.2C7.36,102,3.68,105.67,0,109.38v8.49l15.42-15.29Zm25.07,0h-9.75L23.59,110.72c-8,8-15.83,16-23.59,23.83v8.27q13.76-13.59,27.91-27.75ZM40.42,127.58,168.29,0h-9.87L36.08,123.25Q17.63,141.85,0,159.71v8Q19.76,148.21,40.42,127.58Z"/><path class="cls-1" d="M1722.4,669.84c-34.94,35.44-75.46,77-119.32,121.13L1465.8,929.27l-76.94,76.7-95.56,96.24h-10l2.56-2.58,78-77.68,97-97.67,138-137.59c44.07-44,85.5-84.58,120.86-119.6s65.16-63.87,85.87-84.22l32.69-31.8-31.73,32.77C1786.12,604.53,1757.33,634.39,1722.4,669.84Zm-346.18,364.67-67.79,67.7h9.87l83.14-83.72,76.87-76.68,137.27-138.32c43.85-44.16,84.39-85.7,119.33-121.13s63.72-65.3,84-86.05l31.82-32.79L1818,595.34c-20.71,20.38-50.49,49.26-85.86,84.2s-76.84,75.66-120.85,119.6l-138,137.59ZM1863.15,576l-32.74,31.82c-20.69,20.38-50.49,49.26-85.86,84.22s-76.84,75.64-120.81,119.6l-138,137.59-97,97.7-55.34,55.19h9.76l70.69-71.05,76.87-76.7L1628,816.11c43.86-44.16,84.38-85.69,119.32-121.13s63.72-65.31,84-86.07Zm12.51,12.54L1843,620.38c-20.71,20.38-50.49,49.26-85.86,84.22s-76.83,75.65-120.85,119.6l-138,137.59-97,97.67q-21.24,21.15-42.79,42.69h9.62l58.25-58.68,77-76.62L1640.6,828.54c43.86-44.16,84.39-85.69,119.34-121.12s63.69-65.3,84-86.06Zm12.49,12.52-32.71,31.81c-20.69,20.39-50.49,49.26-85.86,84.2s-76.84,75.66-120.85,119.62-91,90.78-138,137.59l-97,97.71-30.2,30.13H1393l45.76-46.15,76.87-76.68L1652.94,841c43.84-44.16,84.38-85.68,119.32-121.13s63.72-65.29,84-86Zm12.49,12.53L1868,645.52c-20.71,20.38-50.51,49.26-85.87,84.22s-76.83,75.64-120.86,119.6l-138,137.59-97,97.65-17.68,17.63H1418l33.37-33.61,76.89-76.7,137.27-138.3c43.86-44.16,84.4-85.7,119.33-121.13s63.72-65.31,84-86.05Zm-6.78,57.76,31.77-32.67-32.7,31.8c-20.7,20.39-50.49,49.26-85.86,84.22s-76.82,75.64-120.85,119.6l-138,137.59-89.62,90.27h9.12l85.46-85.26,137.27-138.3c43.86-44.17,84.38-85.7,119.33-121.13s63.81-65.3,84.11-86Zm44.23-20.25-32.71,31.8c-20.71,20.38-50.48,49.26-85.85,84.22s-76.84,75.65-120.85,119.6l-138,137.59-77.17,77.73h9.27l72.87-72.74c46.76-47.07,93.5-94.15,137.27-138.3s84.4-85.7,119.35-121.13,63.7-65.31,84-86Zm12.49,12.52-32.71,31.81c-20.69,20.39-50.48,49.26-85.85,84.21s-76.84,75.65-120.85,119.61l-138,137.59-64.77,65.33h9.39l60.35-60.2,137.27-138.32c43.84-44.16,84.38-85.68,119.33-121.13s63.72-65.29,84-86Zm12.51,12.54-32.69,31.86c-20.71,20.39-50.51,49.26-85.87,84.22s-76.83,75.64-120.89,119.6l-138,137.59q-26.23,26.4-52.3,52.66h9.49l47.8-47.68,137.28-138.31c43.86-44.16,84.4-85.69,119.32-121.12s63.72-65.32,84-86.06Zm12.49,12.51-32.71,31.82c-20.71,20.38-50.48,49.26-85.86,84.2s-76.83,75.66-120.85,119.6l-138,137.59-39.86,40.16h9.63l35.23-35.15,137.27-138.32c43.85-44.16,84.38-85.69,119.33-121.13s63.86-65.14,84.19-85.92Zm-392.3,413.5H1593l22.67-22.62L1753,941.28c43.86-44.16,84.38-85.69,119.32-121.12s63.72-65.32,84-86.07l31.72-32.77-32.69,31.8c-20.71,20.38-50.5,49.26-85.87,84.22S1792.67,893,1748.64,936.93l-138,137.6Zm39.93-15-15,15.1h9.86l10.17-10.19c46.76-47.07,93.5-94.15,137.27-138.3s84.4-85.7,119.35-121.13,63.7-65.31,84-86l31.75-32.79-32.71,31.8c-20.71,20.39-50.49,49.26-85.86,84.22s-76.84,75.66-120.85,119.6Zm10,15.1h10L1778,966.37c43.84-44.16,84.38-85.68,119.33-121.13s63.72-65.29,84-86l31.73-32.78-32.71,31.81c-20.69,20.38-50.49,49.26-85.86,84.22S1817.71,918.08,1773.7,962l-138,137.59Zm392.46-363.32-32.7,31.8C1972.2,791.13,1942.41,820,1907,855s-76.82,75.64-120.83,119.6l-128,127.7h9.86l122.48-123.35c43.86-44.16,84.4-85.7,119.33-121.13s63.72-65.31,84-86Zm12.49,12.52-32.7,31.82c-20.71,20.38-50.49,49.26-85.86,84.2s-76.84,75.65-120.85,119.6l-115.46,115.18H1693L1803,991.43c43.84-44.17,84.38-85.7,119.32-121.13s63.73-65.3,84-86.06ZM2050.6,764l-32.69,31.79c-20.71,20.39-50.5,49.27-85.87,84.22s-76.82,75.65-120.85,119.6l-102.9,102.65h9.64l97.6-98.33c43.86-44.17,84.38-85.7,119.32-121.13s63.73-65.31,84-86.07Zm12.51,12.52-32.73,31.74c-20.7,20.39-50.48,49.26-85.85,84.22s-76.84,75.66-120.9,119.6l-90.35,90.13h9.51l85.18-85.78c43.84-44.16,84.38-85.7,119.32-121.13s63.71-65.31,84-86ZM2075.6,789l-32.71,31.82c-20.69,20.38-50.48,49.26-85.85,84.22s-76.84,75.64-120.85,119.6l-77.79,77.59h9.39l72.79-73.31c43.84-44.16,84.38-85.68,119.32-121.11s63.71-65.28,84-86.07Zm12.51,12.54-32.71,31.8c-20.71,20.38-50.5,49.26-85.87,84.22s-76.82,75.66-120.84,119.6l-65.24,65.07h9.27l60.3-60.72c43.85-44.17,84.39-85.7,119.32-121.13s63.72-65.32,84-86.06Zm10,10L1960.83,949.9c-43.84,44.16-84.38,85.69-119.32,121.13q-16.21,16.48-30.61,31.23h4.58q13.65-13.41,28.81-28.41c35.35-35,76.82-75.66,120.85-119.6l138-137.6,96.6-97.21v-9.07ZM1854,1083.51q-9.51,9.63-18.37,18.69h5.08q7.85-7.71,16.1-15.9c35.35-35,76.82-75.66,120.85-119.6l138-137.59,84-84.63v-9.17l-89,88.79L1973.34,962.42C1929.43,1006.51,1888.88,1048.09,1854,1083.51Zm12.49,12.52-6.07,6.18h5.47l3.39-3.39c35.36-35,76.81-75.66,120.86-119.61l138-137.58,71.55-72.11v-9.29c-25.2,25.12-50.84,50.72-76.52,76.33L1985.83,974.87C1941.92,1019,1901.38,1060.6,1866.44,1096Zm274.1-241.9q29.63-29.86,59-59.46v-9.42l-64,63.87L1998.27,987.44c-41.28,41.55-79.57,80.75-113.07,114.77h5.8c33.26-32.9,71.32-70.25,111.59-110.41ZM2153,866.65l46.54-46.87v-9.49L2148,861.67,2010.76,1000c-36.3,36.5-70.2,71.22-100.7,102.22h6.17c30.13-29.76,63.67-62.74,98.9-97.92Zm12.49,12.53,34.05-34.29v-9.65q-19.47,19.39-39,38.93l-137.27,138.3c-31.47,31.7-61.21,62-88.43,89.74h6.54c26.76-26.41,55.92-55.08,86.23-85.39ZM2178,891.7,2199.57,870v-9.78l-26.49,26.49-137.27,138.33c-26.79,27-52.34,53-76.15,77.2h6.95c23.1-22.92,47.84-47.36,73.47-72.84Zm-193.6,210.51h7.32c19.43-19.21,39.82-39.39,60.84-60.33l138-137.59,9-9.11v-9.9l-14,14L2048.32,1037.6C2026,1060,2004.64,1081.63,1984.43,1102.21Zm24.81,0h7.67c15.58-15.4,31.69-31.37,48.17-47.81l134.54-134.2v-10l-1.54,1.53-137.27,138.32C2043,1068,2025.78,1085.47,2009.24,1102.21Zm24.82,0h8q17.39-17.24,35.49-35.28l122-121.74v-9.88l-126.38,127.28Q2053.13,1082.84,2034.06,1102.21Zm24.85,0h8.29c7.54-7.49,15.15-15,22.87-22.76l109.55-109.27v-9.75L2085.74,1075.1Q2072.09,1088.86,2058.91,1102.21Zm24.88,0h8.47c3.39-3.39,6.78-6.79,10.27-10.19l97.06-96.82v-9.63l-101.41,102.07Zm24.91,0h8.66l82.26-82.06v-9.43c-30.33,30.58-60.23,60.68-88.89,89.52Zm24.94,0h8.78l57.2-57v-9.4C2177.2,1058.29,2155.12,1080.57,2133.64,1102.21Zm24.94,0h8.89l32.2-32.07v-9.27Q2178.82,1081.8,2158.58,1102.21Zm24.92,0h9l7.1-7.08V1086Zm-739.39-531,31.75-32.75-32.71,31.82c-20.71,20.38-50.49,49.26-85.88,84.2s-76.82,75.66-120.85,119.62L1100,910.22v10l3.39-3.4,137.27-138.32c43.86-44.17,84.4-85.7,119.33-121.13S1423.81,592,1444.11,571.25Zm12.51,12.52L1488.34,551l-32.7,31.8c-20.7,20.39-50.49,49.26-85.86,84.22s-76.84,75.64-120.85,119.6L1111,924.21l-11,11.1v9.88l16-15.92c46.76-47.08,93.5-94.17,137.27-138.3s84.38-85.69,119.33-121.13S1436.31,604.53,1456.62,583.77Zm12.49,12.54,31.72-32.79-32.69,31.82c-20.71,20.38-50.5,49.26-85.87,84.2s-76.82,75.66-120.85,119.6-91,90.79-138,137.59L1100,960.43v9.75l28.46-28.37,137.27-138.32c43.86-44.16,84.38-85.7,119.32-121.13s63.78-65.3,84.08-86.1ZM1513.34,576l-32.71,31.82c-20.71,20.38-50.48,49.26-85.85,84.22s-76.84,75.64-120.85,119.6l-138,137.59-36,36.26v9.64q20.34-20.38,41-40.77c46.75-47.09,93.49-94.17,137.27-138.31S1362.58,730.4,1397.52,695s63.71-65.31,84-86.07Zm12.49,12.54-32.67,31.8c-20.69,20.38-50.49,49.26-85.86,84.22s-76.84,75.65-120.9,119.6l-138,137.59L1100,1010.72v9.52q26.58-26.5,53.44-53.39l137.27-138.31c43.86-44.16,84.38-85.69,119.32-121.12s63.73-65.32,84-86.06Zm12.51,12.52-32.71,31.81c-20.71,20.39-50.49,49.26-85.87,84.2s-76.82,75.66-120.85,119.62L1161,974.37c-20.34,20.56-40.79,41.08-61,61.39v9.4l65.94-65.77L1303.2,841.07c43.85-44.17,84.39-85.69,119.32-121.14s63.72-65.29,84-86Zm-95.43,501.1,20.95-21.1,76.87-76.68L1678,866.1c43.84-44.16,84.38-85.69,119.33-121.13s63.72-65.29,84-86.05l31.75-32.78L1880.37,658c-20.71,20.38-50.49,49.26-85.86,84.2s-76.84,75.66-120.85,119.6l-138,137.59-97,97.69-5.08,5.1ZM1467.74,0h-9.14l-47.69,48.06c-43.84,44.16-84.4,85.69-119.34,121.13s-63.71,65.31-84,86.05l-31.74,32.79,32.71-31.82c20.69-20.38,50.48-49.26,85.85-84.2s76.76-75.68,120.82-119.6Zm25.08,0h-9.27c-20.46,20.61-40.67,40.89-60.15,60.59-43.79,44.14-84.38,85.68-119.32,121.17s-63.73,65.29-84,86l-31.74,32.73L1221,268.78c20.71-20.39,50.48-49.26,85.85-84.22S1383.69,108.9,1427.72,65Zm25,0h-9.46l-72.52,73.05c-43.84,44.16-84.38,85.69-119.32,121.13s-63.73,65.36-84,86.1l-31.72,32.8,32.71-31.82c20.69-20.38,50.46-49.26,85.85-84.21s76.82-75.66,120.85-119.61Zm25,0h-9.49l-85,85.63c-43.84,44.17-84.38,85.7-119.33,121.13s-63.72,65.32-84,86.07l-31.74,32.77L1246,293.9c20.7-20.39,50.48-49.26,85.85-84.22S1408.69,134,1452.72,90.06ZM1568,0h-9.63L1461,98.2c-43.85,44.16-84.38,85.69-119.33,121.13s-63.7,65.29-84,86l-31.73,32.79,32.7-31.82c20.71-20.38,50.48-49.26,85.87-84.22s76.82-75.66,120.85-119.6Zm25,0h-9.75l-109.9,110.69c-43.82,44.16-84.38,85.69-119.31,121.13s-63.72,65.31-84,86l-31.75,32.78L1271,318.89c20.69-20.39,50.49-49.26,85.86-84.22s76.82-75.68,120.85-119.6Zm25.06,0h-9.86L1485.89,123.25c-43.85,44.17-84.38,85.7-119.33,121.13s-63.72,65.3-84,86.06l-31.73,32.76,32.71-31.79c20.71-20.39,50.49-49.27,85.85-84.22s76.81-75.59,120.84-119.61Zm25,0h-10L1498.38,135.77c-43.83,44.17-84.38,85.7-119.33,121.13s-63.72,65.32-84,86.06l-31.73,32.78L1296,343.92c20.69-20.38,50.47-49.26,85.86-84.21s76.82-75.66,120.85-119.61l138-137.59Zm24.93,0h-9.86l-10,10-137.27,138.3c-43.85,44.17-84.39,85.7-119.33,121.13s-63.72,65.31-84,86.07l-31.74,32.77,32.59-31.8c20.71-20.38,50.49-49.26,85.86-84.22s76.84-75.66,120.9-119.6l138-137.59ZM1693,0h-9.74L1660.7,22.51,1523.42,160.83C1479.6,205,1438.93,246.52,1404.05,282s-63.72,65.29-84,86.05l-31.72,32.79L1321,369c20.71-20.38,50.49-49.26,85.87-84.22s76.82-75.66,120.85-119.6l138-137.59Zm25,0h-9.64l-35.08,35L1535.93,173.35c-43.84,44.16-84.4,85.69-119.32,121.13s-63.78,65.31-84.08,86l-31.74,32.78,32.71-31.8c20.69-20.38,50.48-49.26,85.85-84.21s76.82-75.68,120.85-119.61l138-137.59Zm24.93,0h-9.51L1685.69,47.6,1548.42,185.92c-43.84,44.16-84.38,85.69-119.32,121.13s-63.73,65.29-84,86.05l-31.72,32.76L1346,394.12c20.71-20.38,50.48-49.26,85.85-84.22s76.82-75.66,120.85-119.6l138-137.59Zm24.93,0h-9.39l-60.18,60.05L1561,198.4c-43.83,44.17-84.38,85.7-119.33,121.13s-63.72,65.31-84,86.06l-31.74,32.78,32.71-31.82c20.69-20.38,50.47-49.26,85.85-84.22s76.82-75.65,120.85-119.6l138-137.59C1724.83,43.3,1746.45,21.54,1767.79,0Zm-52.1,77.58,77-77.58h-9.27l-72.76,72.59-137.27,138.3c-43.84,44.16-84.38,85.7-119.33,121.13s-63.72,65.31-84,86.07l-31.74,32.77,32.7-31.8c20.72-20.39,50.49-49.26,85.86-84.22s76.82-75.66,120.85-119.6ZM1815.41,0h-4.58c-21.33,21.85-39.4,40.52-53.41,54.84l-31.73,32.76,32.71-31.8C1773.18,41.29,1792.62,22.39,1815.41,0Zm25.17,0h-5.09c-26.71,27.27-49,50.37-65.65,67.36l-31.66,32.86,32.71-31.81C1788.36,51.18,1812.33,27.91,1840.58,0Zm-58.17,79.84-31.65,32.82,32.62-31.8c20-19.7,48.59-47.38,82.46-80.86h-5.47C1828.17,32.78,1801.6,60.39,1782.41,79.87ZM1891,0h-5.8L1879,6.39c-35,35.45-63.79,65.29-84,86.05l-31.74,32.78,32.71-31.76c20.69-20.38,50.48-49.26,85.85-84.22Zm25.18,0h-6.12l-18.64,18.88c-34.91,35.48-63.71,65.31-84,86.05l-31.74,32.78,32.71-31.8c20.71-20.38,50.48-49.26,85.85-84.21Zm-9.51,34.21c11-10.87,22.66-22.32,34.69-34.21h-6.54c-10.69,10.89-21,21.41-30.9,31.41-34.91,35.45-63.72,65.3-84,86.05l-31.73,32.77,32.71-31.8C1841.57,98.11,1871.35,69.25,1906.67,34.24ZM1966.56,0h-7C1944.46,15.46,1930,30.18,1916.43,44c-34.93,35.45-63.72,65.31-84,86l-31.75,32.79L1833.37,131c20.71-20.38,50.49-49.26,85.86-84.2C1934,32.14,1949.9,16.46,1966.56,0Zm25.19,0h-7.32c-19.68,20-38.27,39.07-55.51,56.45-34.91,35.47-63.72,65.31-84,86.07l-31.73,32.77,32.69-31.8c20.71-20.39,50.49-49.26,85.88-84.22C1950.22,41,1970.41,21.1,1991.75,0ZM1825.66,187.85,1858.37,156c20.69-20.39,50.49-49.26,85.86-84.22,22.13-21.91,46.63-46,72.68-71.79h-7.67c-24.26,24.65-47,47.92-67.79,69-34.93,35.45-63.72,65.29-84,86.05Zm12.49,12.52,32.71-31.8c20.71-20.38,50.49-49.26,85.85-84.22,25.68-25.48,54.61-53.84,85.37-84.32h-8c-28.81,29.32-55.92,56.91-80.14,81.54-34.93,35.47-63.72,65.31-84,86.07Zm44.23-20.28-31.64,32.82,32.71-31.82c20.69-20.38,50.47-49.26,85.86-84.22,29.15-28.87,62.5-61.62,98-96.82H2059c-33.69,34-64.89,65.94-92.58,94C1931.5,129.52,1902.69,159.37,1882.38,180.09Zm99.33-70.71C2014.3,77.1,2052.11,40,2092.29,0h-8.47c-38.33,38.73-73.77,75.08-104.9,106.59-35,35.45-63.78,65.31-84,86l-31.74,32.79,32.71-31.75c20.71-20.38,50.48-49.26,85.85-84.27ZM2117.36,0h-8.66c-43,43.37-82.89,84.21-117.29,119.08-34.91,35.47-63.72,65.31-84,86.07L1875.66,238l32.7-31.8c20.72-20.39,50.49-49.26,85.88-84.22s76.82-75.66,120.88-119.6C2115.82,1.56,2116.6.8,2117.36,0Zm10.17,14.82L2142.42,0h-8.78c-3.49,3.5-7,7-10.4,10.48-43.84,44.17-84.4,85.7-119.33,121.13s-63.72,65.3-84,86.06l-31.74,32.78,32.7-31.81c20.7-20.39,50.49-49.26,85.86-84.22s76.82-75.66,120.85-119.6ZM2140,27.38,2167.47,0h-8.89l-22.85,23c-43.84,44.17-84.38,85.7-119.33,121.13s-63.72,65.32-84,86.07L1900.64,263l32.71-31.8c20.7-20.38,50.48-49.26,85.85-84.22s76.82-75.6,120.85-119.6ZM2183.5,0l-35.28,35.54c-43.83,44.16-84.38,85.7-119.33,121.13s-63.72,65.3-84,86.05l-31.73,32.79,32.71-31.82c20.69-20.38,50.47-49.26,85.86-84.22s76.82-75.66,120.85-119.6l40-39.87Zm16.12,8.89-39,39.17c-43.82,44.13-84.29,85.69-119.24,121.13s-63.72,65.31-84,86.05l-31.75,32.79,32.71-31.82c20.71-20.38,50.49-49.26,85.86-84.2S2121,96.36,2165.05,52.44L2199.62,18Zm-22,56.05,22-22.08V34l-26.4,26.61c-43.85,44.17-84.38,85.68-119.33,121.13s-63.72,65.3-84,86.06l-31.73,32.76,32.69-31.79c20.71-20.39,50.49-49.26,85.88-84.22S2133.53,108.9,2177.56,65Zm12.49,12.52c3.17-3.14,6.37-6.35,9.57-9.54v-8.8l-13.93,13.93c-43.84,44.16-84.39,85.69-119.32,121.13s-63.72,65.29-84,86L1950.63,313l32.71-31.81c20.71-20.39,50.49-49.26,85.85-84.22S2146,121.42,2190.05,77.47Zm9.57,6.8-1.4,1.41c-43.84,44.16-84.38,85.69-119.33,121.13s-63.79,65.28-84.12,86l-31.73,32.77,32.76-31.73c20.71-20.39,50.49-49.26,85.85-84.22,34.58-34.24,75-73.87,117.94-116.7Zm0,25.12c-39.62,39.92-76.29,77.47-108.25,109.92-34.92,35.45-63.73,65.29-84,86l-31.74,32.79,32.7-31.82c20.7-20.38,50.47-49.26,85.86-84.22,31.18-30.9,67.15-66.25,105.43-104.24Zm0,25.17c-34.8,35.22-67.16,68.32-95.73,97.3-34.93,35.45-63.72,65.31-84,86.05l-31.74,32.79,32.71-31.8c20.71-20.38,50.49-49.26,85.86-84.22,27.77-27.52,59.31-58.52,92.93-91.84ZM2032.39,330.47l-31.76,32.73s11.86-11.55,32.69-31.79,50.48-49.27,85.87-84.22c24.28-24.07,51.52-50.84,80.43-79.45v-8c-30.06,30.49-58.11,59.18-83.24,84.66-34.92,35.46-63.73,65.31-84,86.07ZM2199.65,185c-25.42,25.77-49.14,50.06-70.73,72-34.93,35.45-63.72,65.31-84,86.05l-31.74,32.78L2045.86,344c20.71-20.39,50.48-49.26,85.85-84.22,20.76-20.57,43.68-43.11,67.94-67.08Zm-174,203.3,32.69-31.8c20.71-20.38,50.49-49.26,85.86-84.22,17.17-17,35.81-35.36,55.45-54.75v-7.32c-20.69,21.05-40.23,41-58.25,59.25-34.93,35.47-63.72,65.31-84,86.07Zm12.49,12.53L2070.82,369c20.69-20.38,50.47-49.26,85.86-84.22q20.33-20,42.94-42.47v-6.93c-16.08,16.38-31.4,32-45.76,46.55-34.91,35.45-63.72,65.29-84,86Zm12.49,12.52,32.71-31.8c20.71-20.38,50.49-49.26,85.86-84.21,9.71-9.62,19.89-19.69,30.5-30.1v-6.53c-11.54,11.74-22.67,23.09-33.25,33.81-34.93,35.46-63.72,65.31-84,86Zm12.51,12.52,32.71-31.71c20.69-20.38,50.47-49.26,85.85-84.22,5.8-5.76,11.87-11.7,17.95-17.75v-6.24L2178.86,307c-34.93,35.45-63.74,65.3-84.07,86.05Zm12.49,12.54,32.74-31.82c20.71-20.38,50.49-49.26,85.86-84.22l5.45-5.38v-5.81l-8.27,8.39c-34.92,35.45-63.72,65.31-84,86.06Zm45.2-19.28c19.32-19,46.54-45.39,78.82-77.26v-5.47c-33,33.57-60.32,61.85-79.79,81.76l-31.72,32.77ZM1290.89,2.46,1293.3,0h-10L1148.57,135.77Q1123.47,161,1100,184.93v7.7q25.57-25.27,52.91-52.53ZM1303.35,15,1318.23,0h-9.8l-10,10L1161,148.29c-21.22,21.37-41.66,42.13-61,61.88v7.29c20.81-20.54,42.76-42.25,65.42-64.85Zm12.5,12.54L1343.17,0h-9.76l-22.52,22.48L1173.62,160.83c-25.9,26-50.56,51.09-73.64,74.58v6.93c24.44-24.1,50.67-50,78-77.18ZM1328.35,40,1368.1,0h-9.62l-35.1,35L1186.06,173.3c-30.51,30.77-59.49,60.25-86.08,87.32v6.52c27.9-27.51,58.45-57.61,90.4-89.5Zm12.49,12.53L1393,0h-9.51L1335.89,47.6,1198.61,185.92c-35.43,35.67-68.65,69.64-98.56,100v6.15c31.15-30.76,66.09-65.13,102.9-101.92Zm12.5,12.52L1418,0h-9.39l-60.21,60.05L1211.1,198.4C1170.6,239.12,1133,277.59,1100,311.14V317c34.15-33.79,73.59-72.48,115.39-114.22Zm12.49,12.52c25.9-26,51.73-52.1,77.08-77.58h-9.27L1361,72.62,1223.7,210.92c-44.07,44.15-84.54,85.7-119.48,121.13l-4.24,4.31v5.47l7-7c35.32-35,76.82-75.66,120.85-119.6Zm327.09,392.47c-20.72,20.38-50.49,49.26-85.86,84.2s-76.84,75.66-120.85,119.6l-138,137.59-96.94,97.78c-25.63,25.48-51.72,51.59-77.84,77.66l-73.45,74v9.31l78.43-78.24,98-98.68,76.89-76.67,137.28-138.32c43.84-44.17,84.38-85.7,119.32-121.13s63.72-65.3,84-86.06l31.81-32.8Zm45.19-19.29L1705.4,482.6c-20.69,20.38-50.48,49.26-85.85,84.22s-76.84,75.64-120.85,119.6L1360.72,824l-97,97.67-78,77.7L1100,1086v9.16l90.94-90.69c33-33.26,66-66.47,98-98.67l76.88-76.7L1503,690.77c43.86-44.17,84.38-85.7,119.32-121.13s63.73-65.32,84-86.07Zm12.51,12.53-32.71,31.8c-20.71,20.38-50.49,49.26-85.87,84.22s-76.82,75.65-120.83,119.6l-138,137.59-97,97.76c-25.61,25.47-51.72,51.6-77.85,77.66l-89.59,90.26h9.15l85.42-85.25,98-98.68,76.89-76.69,137.27-138.3c43.86-44.17,84.4-85.7,119.35-121.13s63.7-65.31,84-86.06Zm-407.51,6.79c-20.71,20.39-50.51,49.27-85.88,84.21s-76.75,75.62-120.78,119.56q-17.91,17.93-36.47,36.39v9.07l40.81-41.11c43.93-44.11,84.38-85.69,119.33-121s63.72-65.3,84-86.06l31.72-32.85Zm45.19-19.29-32.7,31.82c-20.71,20.38-50.49,49.25-85.86,84.21S1193,642.46,1149,686.42l-49,48.85v9.17l53.32-53.67c43.84-44.17,84.38-85.7,119.32-121.13s63.71-65.32,84-86.07Zm12.5,12.53-32.71,31.8c-20.7,20.39-50.49,49.27-85.86,84.22S1205.39,655,1161.38,699L1100,760.26v9.26l65.81-66.25c43.84-44.16,84.38-85.7,119.32-121.13s63.72-65.31,84-86.05Zm12.5,12.52-32.71,31.82c-20.71,20.38-50.5,49.26-85.87,84.2S1218,667.6,1173.94,711.46l-74,73.79v9.42l78.3-78.86c43.86-44.17,84.38-85.7,119.32-121.13s63.72-65.3,84-86.06Zm12.49,12.54-32.62,31.77c-20.71,20.38-50.49,49.25-85.86,84.21S1230.47,680,1186.41,724L1100,810.29v9.52l90.8-91.43c43.85-44.17,84.38-85.7,119.33-121.13s63.72-65.32,84-86.06,31.73-32.81,31.73-32.81Zm12.49,12.52-32.69,31.81c-20.71,20.39-50.5,49.27-85.87,84.21S1243,692.57,1198.94,736.51l-99,98.73v9.65l103.38-104c43.86-44.16,84.38-85.69,119.32-121.13s63.73-65.29,84-86.05Zm12.51,12.52-32.64,31.85c-20.71,20.38-50.49,49.26-85.86,84.22s-76.84,75.57-120.85,119.61L1100,860.23V870c39.5-39.8,78.7-79.26,115.8-116.61,43.84-44.17,84.38-85.7,119.33-121.13s63.7-65.32,84-86.07ZM1463.28,526l-32.71,31.8c-20.69,20.39-50.49,49.26-85.85,84.22s-76.84,75.66-120.86,119.6L1100,885.21v9.9l128.29-129.19c43.84-44.17,84.38-85.7,119.33-121.13s63.72-65.32,84-86.06Zm-252.36,498.5-77.18,77.73H1143l72.91-72.8,98-98.52,76.87-76.68L1528,715.89c43.85-44.16,84.38-85.69,119.33-121.13s63.72-65.29,84-86.05l31.73-32.78-32.69,31.72c-20.69,20.39-50.49,49.27-85.86,84.21s-76.84,75.74-120.8,119.6l-138,137.59-97,97.67Zm12.49,12.52-64.74,65.21h9.39l60.35-60.2,98-98.67,77-76.69,137.27-138.31c43.86-44.16,84.38-85.69,119.33-121.13s63.7-65.31,84-86.05l31.72-32.78L1743,520.18c-20.71,20.38-50.5,49.25-85.87,84.21S1580.32,680,1536.29,724l-138,137.59-97,97.71Zm12.5,12.54-52.31,52.66h9.59l47.79-47.68,98-98.66,76.87-76.68,137.27-138.32c43.85-44.16,84.38-85.69,119.33-121.13s63.72-65.29,84-86.05l31.74-32.79-32.71,31.82c-20.71,20.38-50.49,49.26-85.86,84.2s-76.83,75.66-120.85,119.6l-138,137.59-97,97.68Zm12.49,12.52q-20,20.1-39.86,40.15h9.61l35.25-35.14c33-33.26,66-66.54,98-98.68l76.87-76.69,137.27-138.3c43.86-44.17,84.38-85.7,119.33-121.13s63.72-65.32,84-86.07l31.73-32.79L1768,545.3c-20.7,20.38-50.49,49.26-85.86,84.22s-76.82,75.57-120.85,119.61l-138,137.59-97,97.69Zm12.58,12.52-27.51,27.63h9.75l22.67-22.62,98-98.69,76.86-76.68L1578,765.92c43.86-44.17,84.4-85.7,119.34-121.13s63.71-65.32,84-86.06L1813.12,526l-32.71,31.8c-20.71,20.38-50.48,49.26-85.87,84.22s-76.82,75.65-120.83,119.6l-138,137.59-97,97.67Zm12.51,12.53-15,15.1h9.78l10.17-10.19c33-33.24,66.09-66.45,98-98.67l76.88-76.68,137.27-138.32c43.84-44.16,84.38-85.7,119.33-121.13s63.72-65.29,84-86.05l31.74-32.67L1793,570.32c-20.69,20.38-50.48,49.26-85.85,84.2s-76.84,75.66-120.85,119.62-91,90.77-138,137.59l-97,97.69ZM1108.79,0,1100,8.92v9l18-17.92Zm25,0L1100,34v8.91L1143,0Zm24.93,0L1100,59.15V68L1168.06,0Zm-55.76,90,90.28-90h-9.59L1100,84.25v8.67ZM1218.15,0h-9.61L1111.08,98.2c-3.74,3.75-7.42,7.47-11.1,11.18v8.49l15.42-15.29Zm25.07,0h-9.75l-109.9,110.69c-8,8-15.83,16-23.59,23.83v8.27q13.76-13.59,27.91-27.75ZM1140.4,127.58,1268.27,0h-9.87L1136.06,123.25q-18.45,18.6-36.08,36.46v8Q1119.74,148.21,1140.4,127.58Z"/></g></g></svg>